# xmcd
#
# Track frame offsets: 
#        150
#        13641
#        28453
#        39747
#        50851
#        65217
#        73656
#        82858
#        93859
#        108506
#        115647
#        124209
#        132088
#        141704
#        153138
#        161250
#        173829
#        186135
#        195794
#        204413
#        213845
#        224334
#        232650
#        245538
#        253929
#        263511
#        272115
#        283808
#        295465
#        305014
#        314769
#        326650
#        337840
#        346828
#
# Disc length: 4724 seconds
#
# Revision: 0
# Processed by: cddbd v1.5.2PL0 Copyright (c) Steve Scherf et al.
# Submitted via: ExactAudioCopy v0.99pb4
#
DISCID=04127222
DTITLE=Julie London - Julie Is Her Name
DYEAR=2009
DGENRE=Ballad
TTITLE0=Cry Me A River
TTITLE1=I Should Care
TTITLE2=I'm In The Mood For Love
TTITLE3=I'm Glad There Is You
TTITLE4=Can't Help Lovin' That Man
TTITLE5=I Love You
TTITLE6=Say It Is'nt So
TTITLE7=It Never Entered My Mind
TTITLE8=Easy Street
TTITLE9='S Wonderful
TTITLE10=No Moon At All
TTITLE11=Laura
TTITLE12=Gone With The Wind
TTITLE13=Blue Moon
TTITLE14=What Is This Thing Called Love
TTITLE15=How Long Has This Been Goin' On
TTITLE16=Too Good To Be True
TTITLE17=Spring Is Here
TTITLE18=Goody Goody
TTITLE19=The One I Love Belongs To Somebody Else
TTITLE20=If I'm Lucky
TTITLE21=Hot Today
TTITLE22=Little White Lies
TTITLE23=I Guess I'll Have To Change My Plan
TTITLE24=I Got Lost In His Arms
TTITLE25=When Your Love Has Gone
TTITLE26=It's The Talk Of The Town
TTITLE27=Lonely Girl
TTITLE28=Fools Rush In
TTITLE29=How Deep Is The Ocean
TTITLE30=Don'cha Go Way Mad
TTITLE31=You're Getting To Be A Habbit With Me
TTITLE32=Memphis In June
TTITLE33=September In The Rain
EXTD=
EXTT0=
EXTT1=
EXTT2=
EXTT3=
EXTT4=
EXTT5=
EXTT6=
EXTT7=
EXTT8=
EXTT9=
EXTT10=
EXTT11=
EXTT12=
EXTT13=
EXTT14=
EXTT15=
EXTT16=
EXTT17=
EXTT18=
EXTT19=
EXTT20=
EXTT21=
EXTT22=
EXTT23=
EXTT24=
EXTT25=
EXTT26=
EXTT27=
EXTT28=
EXTT29=
EXTT30=
EXTT31=
EXTT32=
EXTT33=
PLAYORDER=
